<svg xmlns="http://www.w3.org/2000/svg" viewBox="0 0 553.17 268.67"><g id="Calque_2" data-name="Calque 2"><g id="Calque_1-2" data-name="Calque 1"><path d="M38.38,2.78H64l38.9,107.89H79.61L72.29,88.48H30.47l-7.11,22.19H0ZM51.27,24.39,36.33,70.31h30Z"/><path d="M121.54,110.67V2.78h50.83q16.55,0,25.23,7t8.68,20.32q0,8.2-3.22,13.7a21.24,21.24,0,0,1-9.67,8.49q8.36,3.38,12.49,9.71T210,77.78q0,15.75-10.25,24.32t-29.08,8.57Zm21.24-66.14h25.34q8.2,0,12-2.82t3.81-8.9q0-5.93-3.7-8.6T168,21.53H142.78Zm0,46.66h26.29q9.3,0,13.55-3.37t4.25-10.62q0-7.55-4.17-10.88T168.93,63H142.78Z"/><path d="M231.28,56.84q0-26.16,14.25-41.5T284,0q24.17,0,38.48,15.38t14.32,41.46q0,26.07-14.32,41.45T284,113.67q-24.18,0-38.42-15.38T231.28,56.84Zm22.64,0q0,17.79,7.91,27.65T284,94.34q14.34,0,22.33-9.85t8-27.65q0-17.81-8-27.65T284,19.34q-14.22,0-22.12,9.81T253.92,56.84Z"/><path d="M361.17,2.49h22.41V70.17q0,12.52,5,18.27t15.82,5.75q11,0,16-5.71t5-18.31V2.49H447.6V72.58q0,19.86-11.1,30.47t-32,10.62q-21,0-32.19-10.58T361.17,72.58Z"/><path d="M499.19,110.67V22.05h-32V2.78h86V22.05H521.38v88.62Z"/><path d="M10.47,157.49H32.89v67.68q0,12.53,5,18.27t15.82,5.75q11,0,16-5.71t5-18.31V157.49H96.9v70.09q0,19.86-11.1,30.47t-32,10.62q-21,0-32.19-10.58T10.47,227.58Z"/><path d="M121.17,232.34h21.9q1.25,8.86,7.25,13.15t17.36,4.29q9.67,0,14.58-3.45t4.9-10.18q0-9.81-28.2-16.26l-.65-.14c-.49-.1-1.25-.27-2.27-.52q-15.09-3.28-21.54-7.39a23.87,23.87,0,0,1-8.71-9.85,33.07,33.07,0,0,1-3-14.62q0-15.74,10.7-24.13t30.9-8.39q18.9,0,29.56,8.94T205.18,189H183.87q-.59-7.83-6-11.93t-15.45-4.11q-8.72,0-13.44,3.41a11.25,11.25,0,0,0-4.73,9.7q0,8.58,18.39,12.82l7.76,1.83q11.79,3,16.74,4.69a51.55,51.55,0,0,1,8.6,3.74,24.4,24.4,0,0,1,9.89,9.7,29.77,29.77,0,0,1,3.3,14.47q0,16.84-11.36,26.11t-32,9.26q-20.37,0-31.94-9.45T121.17,232.34Z"/></g></g></svg>