<svg xmlns="http://www.w3.org/2000/svg" viewBox="0 0 439.05 319.83"><defs><style>.cls-1{font-size:30px;font-family:ReggaeOne-Regular, Reggae One;letter-spacing:0.04em;}.cls-1,.cls-10,.cls-11,.cls-12{fill:#fff;}.cls-2{letter-spacing:0.02em;}.cls-3{letter-spacing:-0.17em;}.cls-4{letter-spacing:0.06em;}.cls-5{letter-spacing:0.03em;}.cls-6{letter-spacing:-0.02em;}.cls-7,.cls-8{letter-spacing:0.07em;}.cls-11,.cls-27,.cls-8{font-family:Swiss721BT-Light, Swis721 Lt BT;font-weight:300;}.cls-9{fill:none;stroke:#fff;stroke-linecap:round;stroke-miterlimit:10;}.cls-11{font-size:12px;letter-spacing:0.05em;}.cls-12{font-size:18px;font-family:KozGoPr6N-Regular-83pv-RKSJ-H, Kozuka Gothic Pr6N;}.cls-13,.cls-27{letter-spacing:0.05em;}.cls-14{letter-spacing:-0.02em;}.cls-15{letter-spacing:0.02em;}.cls-16{letter-spacing:-0.05em;}.cls-17{letter-spacing:-0.14em;}.cls-18{letter-spacing:-0.15em;}.cls-19{letter-spacing:-0.11em;}.cls-20{letter-spacing:-0.03em;}.cls-21{letter-spacing:0.01em;}.cls-22{letter-spacing:-0.01em;}.cls-23{letter-spacing:-0.1em;}.cls-24{letter-spacing:-0.03em;}.cls-25{letter-spacing:-0.06em;}.cls-26{letter-spacing:-0.43em;}.cls-28{letter-spacing:-0.13em;}.cls-29{letter-spacing:-0.08em;}.cls-30{letter-spacing:0.03em;}.cls-31{letter-spacing:0.01em;}.cls-32{letter-spacing:-0.05em;}.cls-33{letter-spacing:0.04em;}.cls-34{letter-spacing:0.04em;}.cls-35{letter-spacing:-0.43em;}.cls-36{letter-spacing:0.03em;}.cls-37{letter-spacing:-0.46em;}.cls-38{letter-spacing:-0.13em;}.cls-39{letter-spacing:-0.09em;}.cls-40{letter-spacing:0.05em;}.cls-41{letter-spacing:-0.06em;}.cls-42{letter-spacing:-0.07em;}.cls-43{letter-spacing:0.02em;}.cls-44{letter-spacing:-0.43em;}</style></defs><g id="Calque_2" data-name="Calque 2"><g id="Calque_1-2" data-name="Calque 1"><text class="cls-1" transform="translate(1.3 196.6)">ブ<tspan class="cls-2" x="31.05" y="0">ラ</tspan><tspan class="cls-3" x="61.5" y="0">ン</tspan><tspan class="cls-4" x="86.55" y="0">ド</tspan><tspan class="cls-5" x="118.2" y="0">ハ</tspan><tspan class="cls-6" x="148.95" y="0">ウ</tspan><tspan class="cls-7" x="178.5" y="0">ス工房 </tspan><tspan class="cls-8" x="287.85" y="0">©</tspan></text><line class="cls-9" x1="0.5" y1="207.87" x2="308.5" y2="207.87"/><path class="cls-10" d="M.45,86.31V0H41.11Q54.36,0,61.29,5.6t6.95,16.26a21.33,21.33,0,0,1-2.58,11,17,17,0,0,1-7.73,6.8,20.85,20.85,0,0,1,10,7.76A22.69,22.69,0,0,1,71.23,60q0,12.6-8.21,19.45T39.76,86.31Zm17-52.91H37.71q6.57,0,9.61-2.26t3-7.12q0-4.74-3-6.88c-2-1.43-5.25-2.14-9.82-2.14H17.44Zm0,37.32h21q7.44,0,10.84-2.69t3.4-8.5q0-6-3.34-8.7t-11-2.67H17.44Z"/><path class="cls-10" d="M162.07,86.31V0H120.23Q106.11,0,99.32,6t-6.8,18.45q0,7.92,3.31,13.19a16.73,16.73,0,0,0,9.52,7.2q-5.62,2-8,6.1T94.63,63.75L94.28,74v.35Q94.1,82,90.94,83.67v2.64h19.45a16.5,16.5,0,0,0,1.44-4.48,43.17,43.17,0,0,0,.61-6.36l.24-9.08q.28-8,3-10.84t9.82-2.82h18.81V86.31ZM144.32,37.73H123.46q-6.79,0-10-2.75t-3.2-8.67q0-5.62,3.11-8.53t9.26-2.9h21.68Z"/><path class="cls-10" d="M204.4,0h20.51L256,86.31H237.39l-5.86-17.76H198.07l-5.68,17.76H173.7Zm10.31,17.29L202.76,54h24Z"/><path class="cls-10" d="M270.93,86.31V0H289.5l35,59.3V0h17.52V86.31H323.72L288.45,27v59.3Z"/><path class="cls-10" d="M365.87,86.31V0h33.81q19.86,0,29.62,10.72t9.75,32.52a56,56,0,0,1-3.6,20.86A34.65,34.65,0,0,1,425,78.63a32.07,32.07,0,0,1-11.72,5.89q-6.56,1.78-18.39,1.79Zm17.4-15.59h14.24q12.36,0,17.9-6.47t5.54-21q0-14.47-5.16-21.27t-16.11-6.79H383.27Z"/><text class="cls-11" transform="translate(3.39 158.43)">(01)</text><text class="cls-12" transform="translate(0.17 248.93)"><tspan class="cls-13">私</tspan><tspan class="cls-14" x="18.9" y="0">た</tspan><tspan class="cls-15" x="36.54" y="0">ち</tspan><tspan class="cls-14" x="54.9" y="0">は</tspan><tspan x="72.54" y="0">グ</tspan><tspan class="cls-16" x="90.54" y="0">ラ</tspan><tspan class="cls-17" x="107.64" y="0">フ</tspan><tspan class="cls-18" x="123.12" y="0">ィ</tspan><tspan class="cls-19" x="138.42" y="0">ック</tspan><tspan class="cls-20" x="170.46" y="0">と</tspan><tspan class="cls-13" x="187.92" y="0">聴覚</tspan><tspan class="cls-21" x="225.72" y="0">の</tspan><tspan class="cls-22" x="243.9" y="0">ア</tspan><tspan class="cls-23" x="261.72" y="0">ー</tspan><tspan class="cls-14" x="277.92" y="0">ト</tspan><tspan class="cls-24"><tspan x="-0.72" y="21.6">スタ</tspan><tspan class="cls-15" x="34.2" y="21.6">ジ</tspan><tspan class="cls-22" x="52.56" y="21.6">オ</tspan><tspan class="cls-13" x="70.38" y="21.6">で</tspan><tspan class="cls-25" x="89.28" y="21.6">す</tspan><tspan class="cls-26" x="106.2" y="21.6">。</tspan><tspan class="cls-27" x="116.46" y="21.6"> </tspan><tspan class="cls-28" x="121.25" y="21.6">ウ</tspan><tspan class="cls-29" x="136.91" y="21.6">ェ</tspan><tspan class="cls-30" x="153.47" y="21.6">ブ</tspan><tspan class="cls-13" x="172.01" y="21.6">デ</tspan><tspan class="cls-31" x="190.91" y="21.6">ザ</tspan><tspan class="cls-32" x="209.09" y="21.6">イ</tspan><tspan class="cls-30" x="226.19" y="21.6">ン</tspan><tspan class="cls-33" x="244.73" y="21.6">サ</tspan><tspan class="cls-30" x="263.45" y="21.6">ー</tspan><tspan class="cls-34" x="281.99" y="21.6">ビ</tspan></tspan><tspan class="cls-21" x="-0.72" y="43.2">ス</tspan><tspan class="cls-35" x="17.46" y="43.2">、</tspan><tspan class="cls-13" x="27.72" y="43.2">雑</tspan><tspan class="cls-36" x="46.62" y="43.2">誌</tspan><tspan class="cls-37" x="65.16" y="43.2">、</tspan><tspan class="cls-38" x="74.88" y="43.2">ショ</tspan><tspan class="cls-39" x="106.2" y="43.2">ッ</tspan><tspan class="cls-40" x="122.58" y="43.2">プの</tspan><tspan class="cls-27" x="160.38" y="43.2">2</tspan><tspan class="cls-41" x="170.68" y="43.2">チ</tspan><tspan class="cls-42" x="187.6" y="43.2">ャ</tspan><tspan class="cls-31" x="204.34" y="43.2">ン</tspan><tspan class="cls-13" x="222.52" y="43.2">ネ</tspan><tspan class="cls-43" x="241.42" y="43.2">ル</tspan><tspan x="259.78" y="43.2">でラ</tspan><tspan class="cls-15"><tspan x="-0.54" y="64.8">ジオ</tspan><tspan class="cls-13" x="36.18" y="64.8">放</tspan><tspan class="cls-30" x="55.08" y="64.8">送を</tspan><tspan class="cls-16" x="92.16" y="64.8">行っ</tspan><tspan class="cls-21" x="126.36" y="64.8">ていま</tspan><tspan class="cls-25" x="180.9" y="64.8">す</tspan><tspan class="cls-44" x="197.82" y="64.8">。</tspan></tspan></text></g></g></svg>