<svg xmlns="http://www.w3.org/2000/svg" viewBox="0 0 138.9 17.54"><g id="Calque_2" data-name="Calque 2"><g id="Calque_1-2" data-name="Calque 1"><path d="M0,13.3V.35H2.68V5.18H8V.35h2.69v13H8V7.56H2.68V13.3Z"/><path d="M14,8.51a5.2,5.2,0,0,1,1.3-3.75A4.68,4.68,0,0,1,18.87,3.4a4.67,4.67,0,0,1,3.54,1.36,5.2,5.2,0,0,1,1.3,3.75,5.2,5.2,0,0,1-1.3,3.75,4.63,4.63,0,0,1-3.54,1.36,4.64,4.64,0,0,1-3.55-1.36A5.2,5.2,0,0,1,14,8.51Zm2.6,0a3.6,3.6,0,0,0,.58,2.2,2,2,0,0,0,1.67.77,1.94,1.94,0,0,0,1.64-.77,3.6,3.6,0,0,0,.59-2.2,3.57,3.57,0,0,0-.58-2.19,2,2,0,0,0-1.65-.77,2,2,0,0,0-1.67.77A3.57,3.57,0,0,0,16.62,8.51Z"/><path d="M35.32,3.74V13.3H32.81V12.16a3.61,3.61,0,0,1-1.27,1.05,3.74,3.74,0,0,1-1.63.34,3.12,3.12,0,0,1-2.36-.82,3.49,3.49,0,0,1-.79-2.47V3.74h2.56V9.52A2.35,2.35,0,0,0,29.67,11a1.34,1.34,0,0,0,1.13.44,1.92,1.92,0,0,0,1.43-.54,2,2,0,0,0,.53-1.47V3.74Z"/><path d="M38.36,10.19h2.55a1.33,1.33,0,0,0,.53,1.08,2.5,2.5,0,0,0,1.48.36,2.28,2.28,0,0,0,1.15-.25.81.81,0,0,0,.41-.71c0-.43-.51-.76-1.53-1-.42-.08-.75-.16-1-.22a6.39,6.39,0,0,1-2.59-1.13,2.26,2.26,0,0,1-.73-1.76A2.84,2.84,0,0,1,39.7,4.26a4.46,4.46,0,0,1,2.87-.86,4.83,4.83,0,0,1,3,.85,3.07,3.07,0,0,1,1.17,2.4H44.26a1.21,1.21,0,0,0-.46-.94,2,2,0,0,0-1.21-.33,2.09,2.09,0,0,0-1.09.22.73.73,0,0,0-.35.66c0,.38.63.72,1.91,1l.69.16a6.25,6.25,0,0,1,2.61,1.08,2.28,2.28,0,0,1,.69,1.78,2.9,2.9,0,0,1-1.14,2.48,5.55,5.55,0,0,1-3.34.85,4.84,4.84,0,0,1-3.09-.88,3,3,0,0,1-1.12-2.45Z"/><path d="M56,10.4h2.55A4.12,4.12,0,0,1,57,12.77a4.71,4.71,0,0,1-2.86.85,4.14,4.14,0,0,1-3.29-1.39,5.6,5.6,0,0,1-1.21-3.77,5.41,5.41,0,0,1,1.2-3.71A4.12,4.12,0,0,1,54.06,3.4a4.32,4.32,0,0,1,3.39,1.33,5.48,5.48,0,0,1,1.19,3.8v.4a2,2,0,0,1,0,.26H52.24a2.71,2.71,0,0,0,.55,1.7,1.77,1.77,0,0,0,1.42.57,2,2,0,0,0,1.09-.26A1.72,1.72,0,0,0,56,10.4ZM52.24,7.51H56A2.17,2.17,0,0,0,55.48,6a1.8,1.8,0,0,0-1.37-.5,1.73,1.73,0,0,0-1.32.51A2.4,2.4,0,0,0,52.24,7.51Z"/><path d="M60.57,15.75h9v1.79h-9Z"/><path d="M71.65,9.3h2.63a2.23,2.23,0,0,0,.87,1.58,3.59,3.59,0,0,0,2.08.51A3.07,3.07,0,0,0,79,11a1.39,1.39,0,0,0,.59-1.22c0-.79-1.13-1.44-3.38-2h-.08l-.27-.06a8.69,8.69,0,0,1-2.59-.89,3,3,0,0,1-1-1.18,4,4,0,0,1-.36-1.76A3.43,3.43,0,0,1,73.13,1a5.92,5.92,0,0,1,3.71-1,5.41,5.41,0,0,1,3.55,1.07,3.91,3.91,0,0,1,1.34,3H79.18a1.91,1.91,0,0,0-.72-1.44,3,3,0,0,0-1.86-.49A2.73,2.73,0,0,0,75,2.58a1.34,1.34,0,0,0-.57,1.16c0,.69.74,1.2,2.21,1.54l.93.22c.94.24,1.61.43,2,.56a7.2,7.2,0,0,1,1,.45,3,3,0,0,1,1.19,1.17,3.59,3.59,0,0,1,.39,1.73,3.82,3.82,0,0,1-1.36,3.14A5.93,5.93,0,0,1,77,13.66a5.85,5.85,0,0,1-3.83-1.14A4.2,4.2,0,0,1,71.65,9.3Z"/><path d="M89.63,13.37l-.84,0-.62,0a2.78,2.78,0,0,1-2-.55,3.14,3.14,0,0,1-.55-2.16V5.54H84.36V3.74h1.26V1.13h2.54V3.74h1.47v1.8H88.16v5.29a.6.6,0,0,0,.16.5,1.46,1.46,0,0,0,.69.11h.62Z"/><path d="M101,3.74V13.3H98.47V12.16a3.61,3.61,0,0,1-1.27,1.05,3.74,3.74,0,0,1-1.63.34,3.1,3.1,0,0,1-2.36-.82,3.49,3.49,0,0,1-.79-2.47V3.74H95V9.52A2.43,2.43,0,0,0,95.32,11a1.37,1.37,0,0,0,1.14.44,1.92,1.92,0,0,0,1.43-.54,2,2,0,0,0,.53-1.47V3.74Z"/><path d="M113.34.35v13h-2.43V12a3.78,3.78,0,0,1-1.24,1.22,3.24,3.24,0,0,1-1.62.39,3.46,3.46,0,0,1-2.86-1.39,5.81,5.81,0,0,1-1.1-3.67,5.93,5.93,0,0,1,1.1-3.71,3.56,3.56,0,0,1,4.47-1,3.21,3.21,0,0,1,1.2,1.12V.35Zm-6.69,8.11a3.82,3.82,0,0,0,.54,2.21,1.85,1.85,0,0,0,1.58.76,1.78,1.78,0,0,0,1.55-.76,3.77,3.77,0,0,0,.54-2.21,3.4,3.4,0,0,0-.56-2.09,1.88,1.88,0,0,0-1.58-.74,1.78,1.78,0,0,0-1.52.76A3.42,3.42,0,0,0,106.65,8.46Z"/><path d="M117.09,13.3V10.65h2.64V13.3Z"/><path d="M123.5,2.68V.35h2.56V2.68Zm0,10.62V3.74h2.56V13.3Z"/><path d="M129.21,8.51a5.24,5.24,0,0,1,1.29-3.75,5.31,5.31,0,0,1,7.1,0,5.24,5.24,0,0,1,1.3,3.75,5.24,5.24,0,0,1-1.3,3.75,5.31,5.31,0,0,1-7.1,0A5.24,5.24,0,0,1,129.21,8.51Zm2.59,0a3.6,3.6,0,0,0,.59,2.2,2.16,2.16,0,0,0,3.31,0,3.6,3.6,0,0,0,.59-2.2,3.64,3.64,0,0,0-.58-2.19,2.17,2.17,0,0,0-3.32,0A3.57,3.57,0,0,0,131.8,8.51Z"/></g></g></svg>