<svg xmlns="http://www.w3.org/2000/svg" viewBox="0 0 314 427"><defs><style>.cls-1{fill:none;stroke:#fff;stroke-miterlimit:10;}.cls-2,.cls-3,.cls-4,.cls-7,.cls-8{font-size:36px;fill:#fff;font-family:KozGoPr6N-Regular-83pv-RKSJ-H, Kozuka Gothic Pr6N;}.cls-2,.cls-5{letter-spacing:0.05em;}.cls-3{letter-spacing:0.05em;}.cls-4{letter-spacing:0.03em;}.cls-6{letter-spacing:-0.01em;}.cls-7,.cls-9{letter-spacing:0.04em;}.cls-8{letter-spacing:-0.03em;}</style></defs><g id="Calque_2" data-name="Calque 2"><g id="Calque_1-2" data-name="Calque 1"><rect class="cls-1" x="0.9" y="0.77" width="88.74" height="119.92"/><rect class="cls-1" x="112.43" y="28.35" width="88.74" height="119.92"/><rect class="cls-1" x="0.5" y="144.28" width="88.74" height="119.92"/><rect class="cls-1" x="112.43" y="167.47" width="88.74" height="119.92"/><rect class="cls-1" x="112.43" y="306.58" width="88.74" height="119.92"/><rect class="cls-1" x="0.5" y="288.19" width="88.74" height="119.92"/><rect class="cls-1" x="224.76" y="0.77" width="88.74" height="119.92"/><rect class="cls-1" x="224.36" y="144.28" width="88.74" height="119.92"/><rect class="cls-1" x="224.36" y="288.19" width="88.74" height="119.92"/><text class="cls-2" transform="translate(27 75.4)">た</text><text class="cls-3" transform="translate(138.46 102.4)">で</text><text class="cls-2" transform="translate(251 74.4)">ぺ</text><text class="cls-2" transform="translate(251 218.4)">お</text><text class="cls-4" transform="translate(232.1 340.8)">そ<tspan class="cls-5" x="37.08" y="0">れ</tspan><tspan class="cls-6"><tspan x="18.72" y="43.2">ら</tspan></tspan></text><text class="cls-2" transform="translate(120.1 241.4)">時間</text><text class="cls-2" transform="translate(139 380.4)">の</text><text class="cls-7" transform="translate(7.92 340.8)">あ<tspan class="cls-5" x="37.44" y="0">な</tspan><tspan class="cls-5"><tspan x="0.18" y="43.2">たは</tspan></tspan></text><text class="cls-8" transform="translate(8.82 197.8)">え<tspan class="cls-9" x="34.92" y="0">ー</tspan><tspan x="18.18" y="43.2">と</tspan></text></g></g></svg>