<svg xmlns="http://www.w3.org/2000/svg" viewBox="0 0 820.75 527.38"><defs><style>.cls-1{fill:#fff;}.cls-2{font-size:150px;font-family:ReggaeOne-Regular, Reggae One;letter-spacing:0.07em;}</style></defs><g id="Calque_2" data-name="Calque 2"><g id="Calque_1-2" data-name="Calque 1"><path d="M106.72,105.21a23.87,23.87,0,0,1-3.14,12q-14.17,24.2-48.79,24.2a99.62,99.62,0,0,1-20.86-2.56q-2.16,6.09-7.28,6.1-9.43,0-9.44-7.87v-2.76c0-1.18-.2-1.9-.59-2.16Q14.06,131,11.7,129.6c-1.57-.91-2.36-2.56-2.36-4.92q0-6.09,5.9-6.88V92.62C12.75,90.91,11.5,89,11.5,86.71q0-3.73,3.74-6.49V20q0-3.15,3.44-6.39t6.6-3.25q4.32,0,5.9,1.18l3.93,4.33-1.38,8.85Q47.28,6.44,68.07,6.44q16.47,0,25.89,12,8.64,10.82,8.63,27.74a49.87,49.87,0,0,1-4.13,19.47q-4.12,10.44-11,16.53Q106.73,88.3,106.72,105.21ZM88.82,104q0-7.62-19-10-7.85-.78-25.88-.78-6.48,0-10.59.39-.2,5.09-.2,9.38v12.13q0,4.11.2,7a55.57,55.57,0,0,0,21.17,3.91,45.46,45.46,0,0,0,21.57-5.87Q88.82,113.55,88.82,104ZM84.69,45.4q0-24.19-17.51-24.2-12.6,0-23.41,16.72-10,15.15-10,28.33V78.84H44.36q20.66,0,29.51-6.09Q84.69,65.07,84.69,45.4Z"/><path d="M239.32,138.46v1c-2,2.88-4.39,4.33-7.27,4.33a7.1,7.1,0,0,1-5.71-3q-1.77-7.09-26.07-23t-32.16-15.94h-3.55c-1.83.14-3.08.2-3.73.2v7.67a72.38,72.38,0,0,0,1,10.43c.65,5.25,1.38,8.46,2.16,9.64,2.36,3.15,3.54,5.11,3.54,5.9a7.14,7.14,0,0,1-2.75,5.8,9.63,9.63,0,0,1-6.29,2.27q-7.49,0-11.61-5.31-3.95-4.72-3.94-39a17.55,17.55,0,0,1-8.65-2.56c-3.42-2.09-5.12-4.32-5.12-6.68q0-7.29,13.18-10.43.79-6.1,1.38-16.72.39-12,1-16.73,1.19-6.29,2.95-18.88h-1.57q-7.87.2-7.87-6.89,0-6.09,4.72-7.67l6.69-2a29.7,29.7,0,0,1,6.2-4.62c1.51-.72,3.9-1.09,7.18-1.09,2.36,0,3.54,1.06,3.54,3.15q0,1,4.92,1,23,0,39.15,9.24,19.88,11.22,19.87,32.46,0,16.34-10.23,27-6.88,7.27-24.39,16.33,14,8.85,27.73,17.7Q239.53,124.09,239.32,138.46ZM212.57,50.32q0-12.58-12.84-19.09-10.26-5.31-24.09-5.31-1.78,0-8.49.59.19,7.08-3.75,24.4-2.18,10.43-3,30.49,11.46,3.94,14.22,3.94A26.12,26.12,0,0,0,181.56,84q13-3.93,21.33-12Q212.57,62.72,212.57,50.32Z"/><path d="M357.56,107q0,9.43-8.46,9.64a70.52,70.52,0,0,0,4.33,12.2,9.35,9.35,0,0,1-3.54,7.08,12,12,0,0,1-7.87,2.75,20.39,20.39,0,0,1-8.26-2.16,27,27,0,0,1-2.56-12.2c0-1.18.07-2.88.2-5.11s.19-3.87.19-4.92c0,.92-2.16,1.37-6.49,1.37q-11,0-26.16,1-21.65,1.17-23.51,3.34T273,141a7.64,7.64,0,0,1-6.5,3.74q-4.12,0-8.45-3.44c-2.89-2.3-4.33-4.75-4.33-7.38q0-1.37,3.54-11,3.93-14,12.79-41.9,26.36-72.2,43.87-72.2Q331,8.81,340.25,47q4.14,17.12,7.67,52.53a30.8,30.8,0,0,1,6.5,2A5.9,5.9,0,0,1,357.56,107ZM330,99.5q-8.65-68.65-15.54-68.66-5.5,0-19.28,32.27-9.84,23.21-15.54,40.33,6.29-1.38,18.69-3.35Q309.55,98.73,330,99.5Z"/><path d="M482.1,12.75a12.57,12.57,0,0,1-1.77,5.51q-2.18,4.33-2.56,5.33-5.72,17.93-5.71,29.35l-.59,56.55a49.28,49.28,0,0,1-3.93,17.73q-4.92,11.43-12.2,11.43-10.81,0-21.44-18.1-7.68-13.36-15.55-37-4.52-15.36-9.24-30.69Q405,86.32,405,97.73q0,25.18,3,28.92t3,5.51q0,3.74-3.93,6.59a13.39,13.39,0,0,1-7.87,2.85q-5.5,0-9-11.6a57.08,57.08,0,0,1-2.75-16.53q0-3.34.19-9.93t.2-9.94a212.11,212.11,0,0,1,2-24,214.88,214.88,0,0,0,2-24v-24a3.76,3.76,0,0,0-.3-1.18,3.64,3.64,0,0,1-.3-1.18c0-2.62,1.78-4.78,5.32-6.49a19.21,19.21,0,0,1,8.65-2.16q10,0,14.36,6.49,1.19,2.16,2.17,9.05c.39,3.15.79,6.36,1.18,9.64q2.36,14,12.39,44.86,12,36.39,17.91,36.39,2.16,0,2.16-5.52a44,44,0,0,0-.49-5.12,42.39,42.39,0,0,1-.49-5.52l2-53.41a97.56,97.56,0,0,1,4.14-23.65q5.12-16.36,13.77-16.36,2.75,0,7.67,3.55A9.13,9.13,0,0,1,482.1,12.75Z"/><path d="M601.71,60.23q0,30.93-14.16,55.76-16.93,29.55-45.45,29.55a34.82,34.82,0,0,1-17.71-4.33q-4.12,4.32-8.06,4.33c-1.58,0-3.41-.86-5.51-2.57q-3.94-11.07-3.94-29.44,0-15.81.89-47.42t.88-47.42a8.3,8.3,0,0,0-.19-1.38,7.93,7.93,0,0,1-.2-1.58A7.17,7.17,0,0,1,510.82,10a9.15,9.15,0,0,1,6.1-2.17,12.56,12.56,0,0,1,8.75,3.54,8.34,8.34,0,0,1,2.85,8.27q10-14.76,28.53-14.76,22.43,0,34.43,16.94Q601.71,36.8,601.71,60.23Zm-19.48-.79q0-40.21-23.6-40.21-9.64,0-19.09,9.86a46.62,46.62,0,0,0-11.31,18.82,77.62,77.62,0,0,0-3.05,22.37v42.37q0,18.53,15.54,18.53,14,0,25.38-14.39a70.34,70.34,0,0,0,13-27.79A134.9,134.9,0,0,0,582.23,59.44Z"/><path class="cls-1" d="M681.84,49V28.6H704.2V49Zm0,92.84V58.26H704.2V141.8Z"/><path class="cls-1" d="M727.37,114.6h22.28q.32,6.38,4.61,9.49t12.91,3.11q6.54,0,10.11-2.19a6.88,6.88,0,0,0,3.57-6.19q0-5.68-13.37-8.53c-3.64-.77-6.53-1.43-8.68-2q-16.29-4.14-22.64-9.83t-6.33-15.37q0-12.84,9.25-20.33t25.1-7.49q16.76,0,26.32,7.45t10.18,21H778.93a10.39,10.39,0,0,0-4-8.22q-3.81-2.92-10.57-2.92c-4.25,0-7.42.64-9.49,1.92a6.31,6.31,0,0,0-3.11,5.76q0,5,16.67,8.84c2.57.56,4.59,1,6.08,1.38q16.66,3.93,22.78,9.46t6.11,15.6q0,14.22-10,21.67t-29.16,7.45q-17.29,0-27-7.76t-9.76-21.36Z"/><path d="M15.21,154.2H38.73v71q0,13.14,5.23,19.18t16.6,6q11.52,0,16.79-6t5.26-19.22v-71H105.9v73.55q0,20.82-11.65,32T60.71,270.86q-22.07,0-33.78-11.1t-11.72-32Z"/><path d="M223.43,232.75h-23q-1.3,9.28-7.6,13.79T174.63,251q-10.14,0-15.29-3.62c-3.43-2.4-5.15-6-5.15-10.68q0-10.29,29.59-17.06l.69-.15c.51-.11,1.31-.28,2.38-.54q15.84-3.47,22.6-7.76a25,25,0,0,0,9.14-10.34,34.78,34.78,0,0,0,3.15-15.33q0-16.53-11.22-25.32t-32.43-8.8q-19.83,0-31,9.37t-11.79,26.44h22.36q.61-8.22,6.3-12.53t16.22-4.3q9.14,0,14.1,3.57a11.82,11.82,0,0,1,4.95,10.19q0,9-19.28,13.44l-8.15,1.93q-12.37,3.15-17.56,4.91a54.91,54.91,0,0,0-9,3.92,25.74,25.74,0,0,0-10.38,10.19,31.28,31.28,0,0,0-3.45,15.17q0,17.69,11.91,27.4t33.58,9.72q21.36,0,33.51-9.91T223.43,232.75Z"/><path d="M249.44,267.71V154.51h82.23v19.68H272.42v24.13h54.17v19.36H272.42v29.13h62v20.9Z"/><path d="M360.06,267.71V154.51h23.28v92.3H438.6v20.9Z"/><path d="M459.23,267.71V154.51h82.22v19.68H482.2v24.13h54.17v19.36H482.2v29.13h62v20.9Z"/><path d="M656.69,232.75h-23q-1.31,9.28-7.61,13.79T607.89,251q-10.15,0-15.3-3.62c-3.43-2.4-5.15-6-5.15-10.68q0-10.29,29.59-17.06l.69-.15c.51-.11,1.31-.28,2.38-.54q15.84-3.47,22.6-7.76a24.94,24.94,0,0,0,9.14-10.34A34.78,34.78,0,0,0,655,185.56q0-16.53-11.22-25.32t-32.43-8.8q-19.82,0-31,9.37t-11.79,26.44H590.9q.61-8.22,6.3-12.53t16.22-4.3q9.15,0,14.1,3.57a11.81,11.81,0,0,1,5,10.19q0,9-19.29,13.44L605,199.55q-12.37,3.15-17.56,4.91a54.91,54.91,0,0,0-9,3.92,25.65,25.65,0,0,0-10.37,10.19,31.17,31.17,0,0,0-3.46,15.17q0,17.69,11.91,27.4t33.58,9.72q21.38,0,33.51-9.91T656.69,232.75Z"/><path d="M680.39,232.75h23q1.32,9.28,7.61,13.79t18.22,4.5q10.14,0,15.29-3.62c3.43-2.4,5.15-6,5.15-10.68q0-10.29-29.59-17.06l-.69-.15c-.51-.11-1.31-.28-2.38-.54q-15.84-3.47-22.6-7.76a25,25,0,0,1-9.14-10.34,34.78,34.78,0,0,1-3.15-15.33q0-16.53,11.22-25.32t32.43-8.8q19.83,0,31,9.37t11.79,26.44H746.17q-.61-8.22-6.3-12.53t-16.22-4.3c-6.09,0-10.8,1.19-14.1,3.57a11.83,11.83,0,0,0-5,10.19q0,9,19.29,13.44l8.15,1.93q12.38,3.15,17.56,4.91a54.91,54.91,0,0,1,9,3.92A25.74,25.74,0,0,1,769,218.57a31.28,31.28,0,0,1,3.45,15.17q0,17.69-11.91,27.4T727,270.86q-21.37,0-33.51-9.91T680.39,232.75Z"/><path d="M797.46,294.3v-9q6.45-1.85,9.53-5.69a15.49,15.49,0,0,0,3.07-10v-1.92h-12.6V244.58h23.29v22.21q0,11.44-5.88,18.44T797.46,294.3Z"/><path class="cls-1" d="M14.45,280.42H36.19v40a27.83,27.83,0,0,1,10.42-9.87,29.75,29.75,0,0,1,14.25-3.35q15.15,0,24.75,12.49t9.61,32.47q0,19.83-9.61,32.05a30.41,30.41,0,0,1-25,12.22,28,28,0,0,1-14-3.38,32.5,32.5,0,0,1-10.8-10.76v11.29H14.45ZM73,351.28q0-11.53-4.85-18.1a15.6,15.6,0,0,0-13.29-6.57q-8.92,0-13.8,6.42t-4.88,18.25q0,12.75,4.65,19.37t13.57,6.61q9.06,0,13.83-6.65T73,351.28Z"/><path class="cls-1" d="M192.77,310.09v83.53h-21.9v-9.91a31.29,31.29,0,0,1-11.11,9.11,32.62,32.62,0,0,1-14.25,3q-13.75,0-20.64-7.22T118,367V310.09h22.37v50.49q0,8.91,3,12.72t9.92,3.8q7.83,0,12.49-4.72t4.65-12.88V310.09Z"/><path class="cls-1" d="M257.28,394.24q-3.07.08-7.34.27c-2.84.13-4.65.19-5.42.19q-12.84,0-17.56-4.8T222.23,371V325.77H211.17V310.09h11.06V287.26h22.14v22.83h12.91v15.68H244.37V372c0,2.2.48,3.65,1.46,4.34s3,1,6,1h5.46Z"/><path d="M277.13,334a22.81,22.81,0,0,0-2.45,5.5,21.9,21.9,0,0,0,0,11.73,22.47,22.47,0,0,0,2.45,5.5h-2.52a23.78,23.78,0,0,1-3.17-5.74,15,15,0,0,1,0-11.24,24,24,0,0,1,3.17-5.75Z"/><path class="cls-1" d="M280.4,353.4V335.79h3.79l7.15,12.1v-12.1h3.57V353.4h-3.74L284,341.3v12.1Z"/><path class="cls-1" d="M299,344.62a9.57,9.57,0,0,1,2.32-6.78,9.12,9.12,0,0,1,12.56,0,11,11,0,0,1,0,13.53,9.11,9.11,0,0,1-12.56,0A9.55,9.55,0,0,1,299,344.62Zm3.69,0a7,7,0,0,0,1.29,4.51,4.38,4.38,0,0,0,3.61,1.61,4.44,4.44,0,0,0,3.65-1.61,8.49,8.49,0,0,0,0-9,4.43,4.43,0,0,0-3.65-1.6,4.38,4.38,0,0,0-3.61,1.6A7,7,0,0,0,302.7,344.62Z"/><path class="cls-1" d="M324,353.4V338.94h-5.22v-3.15h14v3.15h-5.19V353.4Z"/><path class="cls-1" d="M347.92,353.4V338.94h-5.23v-3.15h14v3.15h-5.19V353.4Z"/><path class="cls-1" d="M360,353.4V335.79h3.65v6.57H371v-6.57h3.64V353.4H371v-7.8h-7.27v7.8Z"/><path class="cls-1" d="M379.46,353.4V335.79h12.79v3.06H383v3.76h8.42v3H383v4.53h9.64v3.25Z"/><path d="M395.13,334h2.52a23.59,23.59,0,0,1,3.17,5.74,15.21,15.21,0,0,1,0,11.26,23.35,23.35,0,0,1-3.17,5.73h-2.52a22.76,22.76,0,0,0,2.45-5.52,21.72,21.72,0,0,0,0-11.68A23,23,0,0,0,395.13,334Z"/><path d="M36.5,514.85a44,44,0,0,0,13.41,5.84,65.83,65.83,0,0,0,16.64,2q25.36,0,40.31-16.14t15-43.5q0-27.43-15-43.54T66.55,403.42q-25.36,0-40.38,16.13t-15,43.5A74.39,74.39,0,0,0,14.21,485a52,52,0,0,0,9.07,17.41L11,514.16l12.6,13.22ZM52.87,499.4l12-11.68L52.1,474.5l-12.29,12A41,41,0,0,1,36,476a59.92,59.92,0,0,1-1.31-12.91q0-18.68,8.38-29T66.55,423.7q14.91,0,23.21,10.3t8.3,29.05q0,18.68-8.3,29T66.55,502.4a33.19,33.19,0,0,1-7.26-.77A29.34,29.34,0,0,1,52.87,499.4Z"/><path d="M147.27,406h23.52v71q0,13.14,5.23,19.17t16.6,6q11.52,0,16.79-6T214.67,477V406H238v73.54q0,20.83-11.64,32t-33.55,11.15q-22.05,0-33.78-11.11t-11.72-32Z"/><path d="M294.47,406.34h26.9l40.81,113.2H337.74l-7.68-23.29H286.17l-7.45,23.29H254.2ZM308,429l-15.68,48.18h31.43Z"/><path d="M460.27,519.54V406.34H437v92.29H381.73v20.91Z"/><path d="M481.67,519.54V406.34H505v113.2Z"/><path d="M560.55,519.54v-93H527V406.34h90.22v20.21H583.83v93Z"/><path d="M689.15,519.54H665.86V477.35l-41.11-71h28.51l24.21,48.8,22.36-48.8h26.59l-37.27,71Z"/><text class="cls-2" transform="translate(6.03 132)">BRAND</text></g></g></svg>