<svg xmlns="http://www.w3.org/2000/svg" viewBox="0 0 60.58 207.31"><g id="Calque_2" data-name="Calque 2"><g id="Calque_1-2" data-name="Calque 1"><path d="M.68,203.57v-.88a12.9,12.9,0,0,1,.16-2.4,4.19,4.19,0,0,1,.54-1.38,4.74,4.74,0,0,1,2.23-1.83,9.08,9.08,0,0,1,3.52-.62,9.07,9.07,0,0,1,3.71.68,4.71,4.71,0,0,1,2.23,2,4.57,4.57,0,0,1,.43,1.38,18.93,18.93,0,0,1,.12,2.5v3.56H.68Zm11.88,1.85v-2.5a15.41,15.41,0,0,0-.11-2.15,3.28,3.28,0,0,0-.37-1.12,3.58,3.58,0,0,0-1.8-1.47,8.59,8.59,0,0,0-3.12-.48,8.55,8.55,0,0,0-3,.46,3.69,3.69,0,0,0-1.81,1.39,3.2,3.2,0,0,0-.45,1.16,14,14,0,0,0-.13,2.34v2.37Z"/><path d="M9.16,191.87h.05a4.16,4.16,0,0,0,2.73-.83,2.69,2.69,0,0,0,1-2.21,2.83,2.83,0,0,0-.6-1.84,2.43,2.43,0,0,0-1.62-.89V185A3.29,3.29,0,0,1,13,186.25a4.06,4.06,0,0,1,.86,2.65,3.69,3.69,0,0,1-1.29,3A5.45,5.45,0,0,1,9,193a5.54,5.54,0,0,1-3.65-1.09,3.7,3.7,0,0,1-1.31-3,3.64,3.64,0,0,1,1.25-2.94,5.33,5.33,0,0,1,3.51-1.05h.36Zm-.87,0V186a3.9,3.9,0,0,0-2.43.84,2.57,2.57,0,0,0-.89,2,2.67,2.67,0,0,0,.9,2.09A3.75,3.75,0,0,0,8.29,191.85Z"/><path d="M10.71,181.56v-1.08a2.11,2.11,0,0,0,1.57-.73,2.6,2.6,0,0,0,.6-1.77,3.23,3.23,0,0,0-.46-1.85,1.44,1.44,0,0,0-1.25-.67c-.75,0-1.33.83-1.73,2.49v0a7.13,7.13,0,0,1-1.06,2.69,2,2,0,0,1-1.62.68,2.46,2.46,0,0,1-2-.89A3.51,3.51,0,0,1,4,178.14a3.76,3.76,0,0,1,.79-2.5,3,3,0,0,1,2.18-1v1.1a2,2,0,0,0-1.48.71A2.68,2.68,0,0,0,5,178.16a2.46,2.46,0,0,0,.44,1.53,1.39,1.39,0,0,0,1.16.57c.83,0,1.45-.85,1.85-2.55.05-.22.08-.39.11-.5a5,5,0,0,1,1-2.22,2.14,2.14,0,0,1,1.65-.63,2.33,2.33,0,0,1,1.93,1,4.16,4.16,0,0,1,.75,2.58,3.82,3.82,0,0,1-.86,2.61A3.06,3.06,0,0,1,10.71,181.56Z"/><path d="M2.3,170.41H.68v-1.07H2.3Zm11.32,0H4.28v-1.07h9.34Z"/><path d="M4.28,157h8.86a4.31,4.31,0,0,1,3.23,1.12,4.6,4.6,0,0,1,1.09,3.31,4.37,4.37,0,0,1-.74,2.64,2.59,2.59,0,0,1-2,1.1v-1.1A1.74,1.74,0,0,0,16,163.3a3.23,3.23,0,0,0,.46-1.85,3.47,3.47,0,0,0-.84-2.54,3.34,3.34,0,0,0-2.48-.85H12a4,4,0,0,1,1.4,1.39,3.81,3.81,0,0,1,.46,1.87,3.76,3.76,0,0,1-1.32,3,5.38,5.38,0,0,1-3.6,1.1,5.36,5.36,0,0,1-3.59-1.12,3.75,3.75,0,0,1-1.33-3,3.67,3.67,0,0,1,.47-1.88,3.78,3.78,0,0,1,1.39-1.36H4.28ZM9,164.31a4.59,4.59,0,0,0,2.92-.84,3.08,3.08,0,0,0,0-4.64A4.56,4.56,0,0,0,9,158a4.59,4.59,0,0,0-2.92.83,2.86,2.86,0,0,0-1,2.35,2.81,2.81,0,0,0,1,2.33A4.63,4.63,0,0,0,9,164.31Z"/><path d="M13.62,152.79H4.28v-1H5.77a3.72,3.72,0,0,1-1.29-1.3,3.64,3.64,0,0,1-.44-1.8A3.89,3.89,0,0,1,4.39,147a2.48,2.48,0,0,1,1-1.12,2.45,2.45,0,0,1,.79-.29,8.86,8.86,0,0,1,1.51-.09h6v1.12H7.83a3.61,3.61,0,0,0-2.23.5A2.27,2.27,0,0,0,5,148.86a2.63,2.63,0,0,0,.83,2.07,3.2,3.2,0,0,0,2.26.76h5.51Z"/><path d="M2.3,134.58H.68v-1.07H2.3Zm11.32,0H4.28v-1.07h9.34Z"/><path d="M13.62,129.19H4.28v-1.05H5.77A3.44,3.44,0,0,1,4,125.05a4,4,0,0,1,.35-1.7,2.51,2.51,0,0,1,1-1.11,2.24,2.24,0,0,1,.79-.29,8.86,8.86,0,0,1,1.51-.09h6V123H7.83a3.55,3.55,0,0,0-2.23.5A2.27,2.27,0,0,0,5,125.26a2.65,2.65,0,0,0,.83,2.07,3.2,3.2,0,0,0,2.26.76h5.51Z"/><path d="M10.71,118.08V117a2.11,2.11,0,0,0,1.57-.73,2.6,2.6,0,0,0,.6-1.77,3.17,3.17,0,0,0-.46-1.84,1.43,1.43,0,0,0-1.25-.68c-.75,0-1.33.83-1.73,2.49v0a7.05,7.05,0,0,1-1.06,2.69,2,2,0,0,1-1.62.68,2.46,2.46,0,0,1-2-.89A3.51,3.51,0,0,1,4,114.66a3.78,3.78,0,0,1,.79-2.5,3,3,0,0,1,2.18-1v1.1a2,2,0,0,0-1.48.71A2.68,2.68,0,0,0,5,114.68a2.46,2.46,0,0,0,.44,1.53,1.39,1.39,0,0,0,1.16.57c.83,0,1.45-.85,1.85-2.55.05-.22.08-.39.11-.5a5,5,0,0,1,1-2.22,2.14,2.14,0,0,1,1.65-.63,2.33,2.33,0,0,1,1.93,1,4.16,4.16,0,0,1,.75,2.58,3.82,3.82,0,0,1-.86,2.61A3.06,3.06,0,0,1,10.71,118.08Z"/><path d="M17.38,107H4.28v-1.1H6a3.62,3.62,0,0,1-1.45-1.33,4.16,4.16,0,0,1,.85-5A5.4,5.4,0,0,1,9,98.51a5.36,5.36,0,0,1,3.61,1.12,3.84,3.84,0,0,1,1.31,3.07,3.67,3.67,0,0,1-.47,1.88,3.83,3.83,0,0,1-1.4,1.33h5.37ZM9,106a4.54,4.54,0,0,0,2.91-.83,3.13,3.13,0,0,0,0-4.66A4.56,4.56,0,0,0,9,99.64a4.6,4.6,0,0,0-2.93.83,2.85,2.85,0,0,0-1,2.35,2.8,2.8,0,0,0,1,2.33A4.63,4.63,0,0,0,9,106Z"/><path d="M2.3,94.69H.68V93.62H2.3Zm11.32,0H4.28V93.62h9.34Z"/><path d="M13.62,89.29H4.28v-1H5.92a3,3,0,0,1-1.41-1.12A3.19,3.19,0,0,1,4,85.37v-.13H5.18v.14A2.59,2.59,0,0,0,6,87.48a3.73,3.73,0,0,0,2.47.7h5.15Z"/><path d="M3.08,78.69v.81L0,77.66V76.32Zm6.08,2.64h.05a4.21,4.21,0,0,0,2.73-.82,2.71,2.71,0,0,0,1-2.22,2.8,2.8,0,0,0-.6-1.83,2.44,2.44,0,0,0-1.62-.9V74.48A3.37,3.37,0,0,1,13,75.71a4.08,4.08,0,0,1,.86,2.65,3.69,3.69,0,0,1-1.29,3A5.45,5.45,0,0,1,9,82.43a5.59,5.59,0,0,1-3.65-1.08,3.72,3.72,0,0,1-1.31-3A3.62,3.62,0,0,1,5.29,75.4,5.33,5.33,0,0,1,8.8,74.35h.36Zm-.87,0V75.46a3.9,3.9,0,0,0-2.43.84,2.59,2.59,0,0,0-.89,2,2.65,2.65,0,0,0,.9,2.08A3.81,3.81,0,0,0,8.29,81.32Z"/><path d="M10.71,64.44V63.36a2.12,2.12,0,0,0,1.57-.74,2.6,2.6,0,0,0,.6-1.77A3.19,3.19,0,0,0,12.42,59a1.42,1.42,0,0,0-1.25-.67c-.75,0-1.33.83-1.73,2.48v0a7.06,7.06,0,0,1-1.06,2.68,2,2,0,0,1-1.62.68,2.43,2.43,0,0,1-2-.89A3.48,3.48,0,0,1,4,61a3.79,3.79,0,0,1,.79-2.51,3,3,0,0,1,2.18-1v1.1a2.08,2.08,0,0,0-1.48.71A2.69,2.69,0,0,0,5,61a2.45,2.45,0,0,0,.44,1.52,1.36,1.36,0,0,0,1.16.57c.83,0,1.45-.84,1.85-2.54.05-.23.08-.39.11-.51a5,5,0,0,1,1-2.22,2.17,2.17,0,0,1,1.65-.62,2.3,2.3,0,0,1,1.93,1,4.12,4.12,0,0,1,.75,2.58A3.85,3.85,0,0,1,13,63.41,3.09,3.09,0,0,1,10.71,64.44Z"/><path d="M4.28,46.09h9.34v1H12.13a3.6,3.6,0,0,1,1.32,1.31,3.74,3.74,0,0,1,.43,1.82,3.16,3.16,0,0,1-.83,2.38,3.48,3.48,0,0,1-2.49.79H4.28V52.35h6a3,3,0,0,0,2-.52,2.29,2.29,0,0,0,.58-1.76A2.75,2.75,0,0,0,12.06,48a3.13,3.13,0,0,0-2.25-.78H4.28Z"/><path d="M13.62,41.86H4.28v-1H5.92a3,3,0,0,1-1.41-1.12A3.14,3.14,0,0,1,4,37.93v-.12H5.18V38A2.57,2.57,0,0,0,6,40a3.73,3.73,0,0,0,2.47.7h5.15Z"/><path d="M35.22,206.73H22.28v-1.07H35.22Z"/><path d="M30.76,200.7h0a4.21,4.21,0,0,0,2.73-.82,2.7,2.7,0,0,0,1-2.22,2.79,2.79,0,0,0-.59-1.83,2.44,2.44,0,0,0-1.62-.9v-1.08a3.33,3.33,0,0,1,2.28,1.23,4.08,4.08,0,0,1,.86,2.65,3.69,3.69,0,0,1-1.29,3,5.45,5.45,0,0,1-3.59,1.08A5.59,5.59,0,0,1,27,200.72a3.72,3.72,0,0,1-1.31-3,3.62,3.62,0,0,1,1.25-2.93,5.33,5.33,0,0,1,3.51-1.05h.36Zm-.87,0v-5.86a3.87,3.87,0,0,0-2.43.84,2.58,2.58,0,0,0-.89,2,2.66,2.66,0,0,0,.9,2.09A3.81,3.81,0,0,0,29.89,200.69Z"/><path d="M32.31,183.81v-1.09a2.08,2.08,0,0,0,1.57-.73,2.6,2.6,0,0,0,.6-1.77,3.19,3.19,0,0,0-.46-1.84,1.43,1.43,0,0,0-1.25-.67c-.76,0-1.33.83-1.73,2.48v.05A7.06,7.06,0,0,1,30,182.92a2,2,0,0,1-1.62.68,2.43,2.43,0,0,1-2-.89,3.48,3.48,0,0,1-.75-2.32,3.79,3.79,0,0,1,.79-2.51,3,3,0,0,1,2.18-1V178a2.08,2.08,0,0,0-1.48.71,2.68,2.68,0,0,0-.53,1.74,2.46,2.46,0,0,0,.44,1.53,1.39,1.39,0,0,0,1.16.57c.83,0,1.45-.84,1.85-2.54.05-.23.08-.39.11-.51a5,5,0,0,1,1-2.22,2.17,2.17,0,0,1,1.65-.62,2.3,2.3,0,0,1,1.93,1,4.12,4.12,0,0,1,.75,2.58,3.85,3.85,0,0,1-.86,2.61A3.09,3.09,0,0,1,32.31,183.81Z"/><path d="M23.9,172.65H22.28v-1.07H23.9Zm11.32,0H25.88v-1.07h9.34Z"/><path d="M23.2,165.84h2.68V164.1h.88v1.74h6.81a1.4,1.4,0,0,0,.79-.15.64.64,0,0,0,.19-.54,2.75,2.75,0,0,0,0-.38q0-.21-.12-.66h.86a6.67,6.67,0,0,1,.15.72,4.69,4.69,0,0,1,.05.62,1.4,1.4,0,0,1-.41,1.14,2.41,2.41,0,0,1-1.48.34H26.76v1.27h-.88v-1.27H23.2Z"/><path d="M30.76,160h0a4.21,4.21,0,0,0,2.73-.83,2.69,2.69,0,0,0,1-2.21,2.82,2.82,0,0,0-.59-1.84,2.48,2.48,0,0,0-1.62-.9v-1.08a3.37,3.37,0,0,1,2.28,1.23,4.1,4.1,0,0,1,.86,2.66,3.69,3.69,0,0,1-1.29,3,5.45,5.45,0,0,1-3.59,1.08A5.54,5.54,0,0,1,27,160a3.71,3.71,0,0,1-1.31-3A3.63,3.63,0,0,1,26.89,154a5.33,5.33,0,0,1,3.51-1h.36Zm-.87,0v-5.85a3.76,3.76,0,0,0-2.43.84,2.57,2.57,0,0,0-.89,2,2.67,2.67,0,0,0,.9,2.09A3.81,3.81,0,0,0,29.89,159.93Z"/><path d="M22.28,139.25v-3.07l12.94-4.67v2.8l-2.66.87v5l2.66.86v2.8Zm2.59-1.54,5.51,1.79v-3.59Z"/><path d="M35.22,127.11l-9.55,2.71v-2.6l6.62-1.56-6.62-1.32v-2.61l6.62-1.39-6.62-1.56V116.3L35.22,119v2.56l-6.84,1.53,6.84,1.47Z"/><path d="M35.22,111.54l-9.55,2.7v-2.59l6.62-1.56-6.62-1.32v-2.61l6.62-1.39-6.62-1.56v-2.48l9.55,2.68V106l-6.84,1.53L35.22,109Z"/><path d="M35.22,96l-9.55,2.71V96.08l6.62-1.57L25.67,93.2V90.59l6.62-1.39-6.62-1.57V85.15l9.55,2.68v2.56l-6.84,1.53,6.84,1.48Z"/><path d="M34,76.63a3.15,3.15,0,0,1,1.13,1.27,4,4,0,0,1,.4,1.81,2.84,2.84,0,0,1-.8,2.15,3.12,3.12,0,0,1-2.25.75,2.7,2.7,0,0,1-2.06-.75,4.63,4.63,0,0,1-1-2.49c0-.26-.08-.61-.14-1-.14-1.08-.45-1.62-.94-1.62a1,1,0,0,0-.83.36,2.14,2.14,0,0,0-.25,1.2,1.94,1.94,0,0,0,.31,1.19,1,1,0,0,0,.88.41h.14v2.39h-.18a2.79,2.79,0,0,1-2.3-1,4.44,4.44,0,0,1-.84-2.87A5.68,5.68,0,0,1,26,75.29a2.25,2.25,0,0,1,2-1.07h5.44a2.53,2.53,0,0,0,.89-.12.88.88,0,0,0,.44-.41h.43v2.66a2.16,2.16,0,0,1-.54.2A3.3,3.3,0,0,1,34,76.63Zm-3.52,0A7.37,7.37,0,0,1,31,78.11c.11.54.18.82.18.84a2,2,0,0,0,.48.94,1.14,1.14,0,0,0,.8.27,1.05,1.05,0,0,0,.84-.34,1.32,1.32,0,0,0,.32-.92A2.22,2.22,0,0,0,33,77.27a2.12,2.12,0,0,0-1.59-.6Z"/><path d="M35.22,70.19H25.67V67.82H27.3a4,4,0,0,1-1.44-1.17,2.73,2.73,0,0,1-.46-1.59v-.24s0-.1,0-.13H28v.85a2.09,2.09,0,0,0,.54,1.57,2.21,2.21,0,0,0,1.62.53h5Z"/><path d="M22.28,52.7H35.22v2.43H33.93a3.72,3.72,0,0,1,1.23,1.24A3.24,3.24,0,0,1,35.55,58a3.47,3.47,0,0,1-1.4,2.86A5.76,5.76,0,0,1,30.49,62a5.94,5.94,0,0,1-3.72-1.1,3.56,3.56,0,0,1-1-4.47,3.24,3.24,0,0,1,1.13-1.2H22.28Zm8.1,6.69a3.72,3.72,0,0,0,2.21-.55,1.79,1.79,0,0,0,.76-1.57,1.76,1.76,0,0,0-.76-1.55,3.77,3.77,0,0,0-2.21-.54,3.42,3.42,0,0,0-2.09.56,1.88,1.88,0,0,0-.73,1.58,1.79,1.79,0,0,0,.75,1.52A3.42,3.42,0,0,0,30.38,59.39Z"/><path d="M32.11,49.14V46.59a1.35,1.35,0,0,0,1.09-.52,2.59,2.59,0,0,0,.35-1.48,2.22,2.22,0,0,0-.25-1.16.79.79,0,0,0-.71-.4c-.43,0-.75.51-1,1.52-.09.42-.16.75-.23,1a6.54,6.54,0,0,1-1.12,2.59,2.26,2.26,0,0,1-1.76.72,2.83,2.83,0,0,1-2.33-1.06,4.42,4.42,0,0,1-.85-2.87,4.79,4.79,0,0,1,.85-3,3,3,0,0,1,2.4-1.16v2.49a1.15,1.15,0,0,0-.94.46,2,2,0,0,0-.34,1.21A2.18,2.18,0,0,0,27.52,46a.73.73,0,0,0,.66.36c.38,0,.72-.64,1-1.91.07-.29.12-.52.16-.69a6.19,6.19,0,0,1,1.08-2.61,2.28,2.28,0,0,1,1.79-.7A2.9,2.9,0,0,1,34.7,41.6a5.56,5.56,0,0,1,.85,3.33,4.89,4.89,0,0,1-.89,3.1,3,3,0,0,1-2.44,1.11Z"/><path d="M30.76,29.67h0a4.21,4.21,0,0,0,2.73-.83,2.69,2.69,0,0,0,1-2.21A2.84,2.84,0,0,0,34,24.79a2.43,2.43,0,0,0-1.62-.89V22.81A3.37,3.37,0,0,1,34.62,24a4.1,4.1,0,0,1,.86,2.66,3.69,3.69,0,0,1-1.29,3,5.45,5.45,0,0,1-3.59,1.08A5.54,5.54,0,0,1,27,29.68a3.71,3.71,0,0,1-1.31-3,3.63,3.63,0,0,1,1.25-2.93,5.33,5.33,0,0,1,3.51-1.05h.36Zm-.87,0V23.8a3.87,3.87,0,0,0-2.43.84,2.57,2.57,0,0,0-.89,2,2.67,2.67,0,0,0,.9,2.09A3.75,3.75,0,0,0,29.89,29.65Z"/><path d="M23.2,17.54h2.68V15.81h.88v1.73h6.81a1.4,1.4,0,0,0,.79-.15.62.62,0,0,0,.19-.53,2.75,2.75,0,0,0,0-.38q0-.21-.12-.66h.86a6.67,6.67,0,0,1,.15.72,4.56,4.56,0,0,1,.05.62,1.4,1.4,0,0,1-.41,1.14,2.42,2.42,0,0,1-1.48.33H26.76V19.9h-.88V18.62H23.2Z"/><path d="M53.6,200.42v-1.08a3.68,3.68,0,0,1,2.53,1.19,3.88,3.88,0,0,1,.93,2.69,3.7,3.7,0,0,1-1.3,3,5.33,5.33,0,0,1-3.54,1.09,5.51,5.51,0,0,1-3.65-1.11,3.75,3.75,0,0,1-1.33-3,3.82,3.82,0,0,1,.88-2.58,3.18,3.18,0,0,1,2.33-1.1v1a2.45,2.45,0,0,0-1.63.86,2.87,2.87,0,0,0,.43,4,4.56,4.56,0,0,0,2.87.83,4.69,4.69,0,0,0,2.94-.84,2.65,2.65,0,0,0,1.08-2.22,2.57,2.57,0,0,0-.68-1.82A3,3,0,0,0,53.6,200.42Z"/><path d="M52.16,196.22a5.35,5.35,0,0,1-3.63-1.12,4,4,0,0,1-1.29-3.16,4,4,0,0,1,1.29-3.18,5.35,5.35,0,0,1,3.63-1.13,5.32,5.32,0,0,1,3.62,1.13,4.57,4.57,0,0,1,0,6.34A5.3,5.3,0,0,1,52.16,196.22Zm0-1.11a4.51,4.51,0,0,0,2.92-.84,3.16,3.16,0,0,0,0-4.68,4.56,4.56,0,0,0-2.93-.82,4.6,4.6,0,0,0-2.93.82,3.16,3.16,0,0,0,0,4.68A4.51,4.51,0,0,0,52.16,195.11Z"/><path d="M43.88,175.89H56.82V177H55.24a3.7,3.7,0,0,1,1.38,1.37,4,4,0,0,1,.46,1.93,3.68,3.68,0,0,1-1.32,3,5.47,5.47,0,0,1-3.6,1.1,5.46,5.46,0,0,1-3.6-1.12,4.14,4.14,0,0,1-.85-5A3.48,3.48,0,0,1,49.1,177H43.88Zm8.28,7.32a4.57,4.57,0,0,0,2.92-.83,3.16,3.16,0,0,0,0-4.67,4.6,4.6,0,0,0-2.94-.82,4.6,4.6,0,0,0-2.93.82,3.18,3.18,0,0,0,0,4.68A4.68,4.68,0,0,0,52.16,183.21Z"/><path d="M46.28,168.37v.81l-3.08-1.84V166ZM52.36,171h0a4.21,4.21,0,0,0,2.73-.83,2.69,2.69,0,0,0,1-2.21,2.8,2.8,0,0,0-.59-1.84,2.51,2.51,0,0,0-1.62-.9v-1.08a3.37,3.37,0,0,1,2.28,1.23,4.1,4.1,0,0,1,.86,2.66,3.71,3.71,0,0,1-1.29,3,5.45,5.45,0,0,1-3.59,1.08A5.58,5.58,0,0,1,48.55,171a3.71,3.71,0,0,1-1.31-3,3.63,3.63,0,0,1,1.25-2.93A5.33,5.33,0,0,1,52,164h.36Zm-.87,0v-5.85a3.74,3.74,0,0,0-2.43.84,2.57,2.57,0,0,0-.89,2,2.69,2.69,0,0,0,.9,2.09A3.81,3.81,0,0,0,51.49,171Z"/><path d="M60.58,153.69H47.48v-1.1h1.68a3.62,3.62,0,0,1-1.45-1.33,4.16,4.16,0,0,1,.85-5,5.38,5.38,0,0,1,3.6-1.11,5.38,5.38,0,0,1,3.61,1.12,3.84,3.84,0,0,1,1.31,3.07,3.61,3.61,0,0,1-.47,1.87,3.77,3.77,0,0,1-1.4,1.34h5.37Zm-8.42-1.05a4.54,4.54,0,0,0,2.91-.83,3.13,3.13,0,0,0,0-4.66,4.56,4.56,0,0,0-2.93-.83,4.6,4.6,0,0,0-2.93.83,3.17,3.17,0,0,0,0,4.68A4.63,4.63,0,0,0,52.16,152.64Z"/><path d="M55.47,135.4a5.06,5.06,0,0,1,1.19,1.6,4.29,4.29,0,0,1,.4,1.86,3.3,3.3,0,0,1-.74,2.25,2.49,2.49,0,0,1-2,.84,2.54,2.54,0,0,1-1.39-.38,2.64,2.64,0,0,1-.94-1.11,8.85,8.85,0,0,1-.53-2.79c0-.25,0-.44-.05-.57s0-.18-.06-.31c-.18-.89-.56-1.34-1.15-1.34a2,2,0,0,0-1.56.54,2.73,2.73,0,0,0-.47,1.78,3.15,3.15,0,0,0,.52,1.93,2,2,0,0,0,1.55.72v1.06a2.81,2.81,0,0,1-2.22-1,4.15,4.15,0,0,1-.81-2.69,3.92,3.92,0,0,1,.72-2.55,2.58,2.58,0,0,1,2.11-.86h5.1q.59,0,.72-.15a.74.74,0,0,0,.14-.52v-.21c0-.06,0-.12,0-.19h.81c0,.14,0,.27.07.41s0,.25,0,.36a1.4,1.4,0,0,1-.33,1,1.27,1.27,0,0,1-1,.33Zm-3.54.07a5.84,5.84,0,0,1,.25,1.1c.07.45.12,1.17.18,2.17a3.56,3.56,0,0,0,.77,1.56,1.57,1.57,0,0,0,1.2.53,1.6,1.6,0,0,0,1.28-.56,2.33,2.33,0,0,0,.47-1.55,3.45,3.45,0,0,0-.77-2.37,2.65,2.65,0,0,0-2.09-.88Z"/><path d="M56.82,130H47.48v-1h1.63a3.12,3.12,0,0,1-1.4-1.12,3.2,3.2,0,0,1-.47-1.77V126h1.14v.14a2.61,2.61,0,0,0,.82,2.1,3.79,3.79,0,0,0,2.47.7h5.15Z"/><path d="M56.82,113.27H46.19v3.84H43.88V106.79h2.31v3.81H56.82Z"/><path d="M56.82,103.62H43.88v-2.54h4.44a3.44,3.44,0,0,1-1-1.24,3.75,3.75,0,0,1-.33-1.6,4,4,0,0,1,.29-1.53,2.79,2.79,0,0,1,.83-1.1A2.23,2.23,0,0,1,49,95.2a6.54,6.54,0,0,1,1.49-.12h6.37v2.54h-5a4.61,4.61,0,0,0-2.23.33,1.36,1.36,0,0,0-.45,1.17,1.91,1.91,0,0,0,.54,1.43,2,2,0,0,0,1.47.53h5.67Z"/><path d="M53.92,85.14V82.6a4,4,0,0,1,2.37,1.56A4.71,4.71,0,0,1,57.15,87a4.11,4.11,0,0,1-1.4,3.28A5.51,5.51,0,0,1,52,91.52a5.38,5.38,0,0,1-3.7-1.2,4.12,4.12,0,0,1-1.35-3.27,4.32,4.32,0,0,1,1.33-3.39,5.45,5.45,0,0,1,3.79-1.2h.41l.26,0v6.38a2.68,2.68,0,0,0,1.69-.55A1.79,1.79,0,0,0,55,86.89a2.08,2.08,0,0,0-.26-1.08A1.82,1.82,0,0,0,53.92,85.14ZM51,88.87V85.11a2.13,2.13,0,0,0-1.47.51A1.8,1.8,0,0,0,49.06,87a1.7,1.7,0,0,0,.51,1.31A2.35,2.35,0,0,0,51,88.87Z"/><path d="M52,79.46a5.21,5.21,0,0,1-3.74-1.29,5.31,5.31,0,0,1,0-7.1A5.21,5.21,0,0,1,52,69.78a5.25,5.25,0,0,1,3.76,1.29,5.31,5.31,0,0,1,0,7.1A5.25,5.25,0,0,1,52,79.46Zm0-2.59a3.6,3.6,0,0,0,2.2-.59,2.16,2.16,0,0,0,0-3.31,4.39,4.39,0,0,0-4.38,0,2.17,2.17,0,0,0,0,3.32A3.53,3.53,0,0,0,52,76.87Z"/><path d="M56.82,59.1H43.88V52.82a4.62,4.62,0,0,1,.9-3.13,3.51,3.51,0,0,1,2.77-1,3.68,3.68,0,0,1,2,.49,2.53,2.53,0,0,1,1.08,1.43,2.16,2.16,0,0,1,.91-1.2A4.36,4.36,0,0,1,53.44,49l1.53,0H55c.77,0,1.24-.18,1.41-.5h.39v2.92a2.52,2.52,0,0,1-.67.21,7.51,7.51,0,0,1-.95.1l-1.37,0a2.52,2.52,0,0,0-1.62.45,2.06,2.06,0,0,0-.42,1.48v2.82h5Zm-7.28-2.66V53.31a2.24,2.24,0,0,0-.42-1.5,1.62,1.62,0,0,0-1.3-.48,1.68,1.68,0,0,0-1.28.47,2,2,0,0,0-.43,1.38v3.26Z"/><path d="M52,45.15a5.21,5.21,0,0,1-3.74-1.29,4.64,4.64,0,0,1-1.36-3.55,4.67,4.67,0,0,1,1.36-3.55A5.21,5.21,0,0,1,52,35.47a5.25,5.25,0,0,1,3.76,1.29,4.71,4.71,0,0,1,1.36,3.55,4.68,4.68,0,0,1-1.36,3.55A5.25,5.25,0,0,1,52,45.15Zm0-2.59a3.6,3.6,0,0,0,2.2-.58A2,2,0,0,0,55,40.31a1.93,1.93,0,0,0-.77-1.65,3.6,3.6,0,0,0-2.2-.58,3.54,3.54,0,0,0-2.18.58,2,2,0,0,0-.77,1.65A2,2,0,0,0,49.85,42,3.54,3.54,0,0,0,52,42.56Z"/><path d="M53.22,26.15V23.63A4.2,4.2,0,0,1,56.09,25a4.28,4.28,0,0,1,1.06,3,4.1,4.1,0,0,1-1.36,3.27A5.54,5.54,0,0,1,52,32.41a5.44,5.44,0,0,1-3.75-1.21,4.22,4.22,0,0,1-1.35-3.32,4.34,4.34,0,0,1,1-3,3.87,3.87,0,0,1,2.74-1.25v2.54a1.94,1.94,0,0,0-1.17.53,1.6,1.6,0,0,0-.4,1.14,1.57,1.57,0,0,0,.75,1.42,4.27,4.27,0,0,0,2.24.47,3.89,3.89,0,0,0,2.12-.49,1.57,1.57,0,0,0,.74-1.4,1.55,1.55,0,0,0-.43-1.15A2.31,2.31,0,0,0,53.22,26.15Z"/><path d="M53.92,14.32V11.78a4,4,0,0,1,2.37,1.56,4.71,4.71,0,0,1,.86,2.86,4.11,4.11,0,0,1-1.4,3.28A5.51,5.51,0,0,1,52,20.7a5.38,5.38,0,0,1-3.7-1.2,4.12,4.12,0,0,1-1.35-3.27,4.32,4.32,0,0,1,1.33-3.39,5.45,5.45,0,0,1,3.79-1.2h.41l.26,0v6.38a2.68,2.68,0,0,0,1.69-.55A1.79,1.79,0,0,0,55,16.07,2.06,2.06,0,0,0,54.73,15,1.82,1.82,0,0,0,53.92,14.32ZM51,18.05V14.29a2.13,2.13,0,0,0-1.47.51,1.8,1.8,0,0,0-.51,1.38,1.7,1.7,0,0,0,.51,1.31A2.35,2.35,0,0,0,51,18.05Z"/><path d="M53.71,8.69V6.14a1.35,1.35,0,0,0,1.09-.52,2.59,2.59,0,0,0,.35-1.48A2.22,2.22,0,0,0,54.9,3a.79.79,0,0,0-.71-.4c-.43,0-.75.5-1,1.52-.09.42-.17.75-.23,1a6.54,6.54,0,0,1-1.12,2.59,2.26,2.26,0,0,1-1.76.72,2.83,2.83,0,0,1-2.33-1.06,4.42,4.42,0,0,1-.85-2.87,4.79,4.79,0,0,1,.85-3A3,3,0,0,1,50.18.31V2.79a1.19,1.19,0,0,0-.94.47,1.88,1.88,0,0,0-.34,1.2,2.2,2.2,0,0,0,.22,1.09.73.73,0,0,0,.66.36c.38,0,.72-.64,1-1.91.07-.29.12-.53.16-.7A6.19,6.19,0,0,1,52,.7,2.28,2.28,0,0,1,53.82,0a2.87,2.87,0,0,1,2.47,1.15,5.49,5.49,0,0,1,.86,3.33,4.89,4.89,0,0,1-.89,3.1,3,3,0,0,1-2.44,1.11Z"/></g></g></svg>