<svg xmlns="http://www.w3.org/2000/svg" viewBox="0 0 53.22 558.47"><g id="Calque_2" data-name="Calque 2"><g id="Calque_1-2" data-name="Calque 1"><path d="M44.09,0h8.28V30.12H44.09V20.46H9.65V9.67H44.09Z"/><path d="M9.65,38.29H52.37V49.08H35.82v8.47H52.37V68.34H9.65V57.55H27.17V49.08H9.65Z"/><path d="M9.65,79.87H52.37v26.86H44.09V90.66H35.45v10.8H27.17V90.66H18.3v16.07H9.65Z"/><path d="M9.65,138H52.37v10.8H35.82v8.46H52.37V168H9.65v-10.8H27.17v-8.46H9.65Z"/><path d="M31,177.36a38.67,38.67,0,0,1,8.26.86,22.72,22.72,0,0,1,7.11,2.8,14.06,14.06,0,0,1,5,5.18,17.52,17.52,0,0,1,0,15.61,14.17,14.17,0,0,1-5,5.17,22.82,22.82,0,0,1-7.05,2.77,38.78,38.78,0,0,1-8.32.85A35.92,35.92,0,0,1,20.07,209,17.1,17.1,0,0,1,12,203.7a16.66,16.66,0,0,1,0-19.44A17.1,17.1,0,0,1,20.07,179,35.92,35.92,0,0,1,31,177.36ZM31,189q-5.31,0-8.08.23a9.93,9.93,0,0,0-4.48,1.32,4.26,4.26,0,0,0,0,6.84,9.8,9.8,0,0,0,4.48,1.32q2.77.24,8.08.24c2.69,0,4.79,0,6.29-.1a20.85,20.85,0,0,0,4.11-.55,5.77,5.77,0,0,0,2.86-1.49,4.48,4.48,0,0,0,0-5.67,5.78,5.78,0,0,0-2.84-1.48,22.23,22.23,0,0,0-4.1-.55Q35.06,189,31,189Z"/><path d="M52.37,248.89H23.22a16.91,16.91,0,0,1-8-1.72,11,11,0,0,1-4.82-5,18.19,18.19,0,0,1-1.6-8,17,17,0,0,1,1.66-8,10.45,10.45,0,0,1,4.89-4.67A18.41,18.41,0,0,1,23.22,220H52.37v10.8H22.75q-6,0-6,4.68,0,4.44,6.55,4.44H52.37Z"/><path d="M19.62,257.16l3.6,8.95a14.2,14.2,0,0,0-4.6,2.92,6.14,6.14,0,0,0-1.53,4.44,4.88,4.88,0,0,0,1,3.15,3.19,3.19,0,0,0,2.57,1.29c1.88,0,3.16-.57,3.82-1.71a67,67,0,0,0,3.14-6.94,20.71,20.71,0,0,1,5-7.77Q35.52,259,41.09,259a10.43,10.43,0,0,1,6,1.9A13.68,13.68,0,0,1,51.54,266a14.37,14.37,0,0,1,1.68,6.79A16.86,16.86,0,0,1,52,279.2a14.48,14.48,0,0,1-3.38,5,12.88,12.88,0,0,1-4.81,3l-3.6-8.56q4.73-2.14,4.73-5.89a3.9,3.9,0,0,0-.93-2.63A3.3,3.3,0,0,0,41.35,269q-1.93,0-3.52,3.42c-1.06,2.28-2.11,4.63-3.13,7a19.16,19.16,0,0,1-4.2,6.24,9.82,9.82,0,0,1-7.22,2.62,13.69,13.69,0,0,1-7.54-2.12,14.18,14.18,0,0,1-5.12-5.7,17.08,17.08,0,0,1-1.8-7.78,17.68,17.68,0,0,1,1.25-6.7,15.22,15.22,0,0,1,3.69-5.38A16.68,16.68,0,0,1,19.62,257.16Z"/><path d="M9.65,297.55H52.37v26.87H44.09V308.35H35.45v10.79H27.17V308.35H18.3v16.07H9.65Z"/><path d="M37.43,385V374.94a14.08,14.08,0,0,0,5.43-1,3.61,3.61,0,0,0,2.43-3.6A3.69,3.69,0,0,0,43.46,367a12.31,12.31,0,0,0-4.92-1.53,64,64,0,0,0-7.58-.38,72.2,72.2,0,0,0-8,.34A9.62,9.62,0,0,0,18.39,367a4.11,4.11,0,0,0-1.65,3.59,3.92,3.92,0,0,0,2.09,3.85,16.62,16.62,0,0,0,6.49,1.25L24.49,385a19.23,19.23,0,0,1-6.38-1,13.92,13.92,0,0,1-5-2.94A13.06,13.06,0,0,1,10,376.35a16.39,16.39,0,0,1-1.13-6.26q0-9,6.28-12.82T31,353.47A36.61,36.61,0,0,1,41.76,355,17.4,17.4,0,0,1,50,360.23q3.23,3.72,3.23,9.86a15.72,15.72,0,0,1-2.06,8.34,12.54,12.54,0,0,1-5.64,5A19.41,19.41,0,0,1,37.43,385Z"/><path d="M31,392.82a38.67,38.67,0,0,1,8.26.86,22.72,22.72,0,0,1,7.11,2.8,14.11,14.11,0,0,1,5,5.17,17.54,17.54,0,0,1,0,15.62,14.06,14.06,0,0,1-5,5.16,22.59,22.59,0,0,1-7.05,2.78,38.78,38.78,0,0,1-8.32.85,35.92,35.92,0,0,1-10.94-1.59A17.1,17.1,0,0,1,12,419.16a16.66,16.66,0,0,1,0-19.44,17.1,17.1,0,0,1,8.12-5.31A35.92,35.92,0,0,1,31,392.82Zm0,11.65c-3.54,0-6.23.07-8.08.23A9.8,9.8,0,0,0,18.46,406a4.26,4.26,0,0,0,0,6.84,9.93,9.93,0,0,0,4.48,1.32q2.77.22,8.08.23,4,0,6.29-.09a21.63,21.63,0,0,0,4.11-.55,5.77,5.77,0,0,0,2.86-1.49,3.89,3.89,0,0,0,1-2.84,3.85,3.85,0,0,0-1-2.83,5.78,5.78,0,0,0-2.84-1.48,21.41,21.41,0,0,0-4.1-.55C35.82,404.5,33.71,404.47,31,404.47Z"/><path d="M9.65,435.47H20.1v10.45H11l-11-6v-5.47l9.65,4.73Z"/><path d="M9.65,457.51H52.37v10.8H17.21v14.63H9.65Z"/><path d="M44.09,489h8.28v30.12H44.09v-9.66H9.65V498.67H44.09Z"/><path d="M9.65,527.29H52.37V539a23.58,23.58,0,0,1-1.45,8.58,15.87,15.87,0,0,1-4.17,6.12,17.65,17.65,0,0,1-6.51,3.61,28.73,28.73,0,0,1-8.57,1.18q-9.84,0-15.93-4.43T9.65,540.3Zm35.16,10.79H17.21v1.2a5.86,5.86,0,0,0,2.34,5.12,11.67,11.67,0,0,0,5.37,2.05,59.21,59.21,0,0,0,7.17.38q12.72,0,12.72-7.86Z"/></g></g></svg>